<svg width="37" height="36" viewBox="0 0 37 36" fill="none" xmlns="http://www.w3.org/2000/svg">
<rect x="0.548187" width="36.3705" height="35.6667" rx="12" fill="#3ED598" fill-opacity="0.4"/>
<path d="M14.3896 13.9883C13.9989 14.3787 13.9986 15.0119 14.389 15.4025C14.7794 15.7932 15.4125 15.7935 15.8032 15.4031L14.3896 13.9883ZM19.5019 11.7074C19.8926 11.317 19.8928 10.6839 19.5025 10.2932C19.1121 9.9025 18.4789 9.90224 18.0882 10.2926L19.5019 11.7074ZM19.5019 10.2926C19.1112 9.90224 18.478 9.9025 18.0877 10.2932C17.6973 10.6839 17.6976 11.317 18.0882 11.7074L19.5019 10.2926ZM21.7869 15.4031C22.1776 15.7935 22.8108 15.7932 23.2012 15.4025C23.5915 15.0119 23.5913 14.3787 23.2006 13.9883L21.7869 15.4031ZM19.7951 11C19.7951 10.4477 19.3474 10 18.7951 10C18.2428 10 17.7951 10.4477 17.7951 11H19.7951ZM17.7951 24.1404C17.7951 24.6926 18.2428 25.1404 18.7951 25.1404C19.3474 25.1404 19.7951 24.6926 19.7951 24.1404H17.7951ZM15.8032 15.4031L19.5019 11.7074L18.0882 10.2926L14.3896 13.9883L15.8032 15.4031ZM18.0882 11.7074L21.7869 15.4031L23.2006 13.9883L19.5019 10.2926L18.0882 11.7074ZM17.7951 11V24.1404H19.7951V11H17.7951Z" fill="white"/>
</svg>
