<svg width="60" height="60" viewBox="0 0 60 60" fill="none" xmlns="http://www.w3.org/2000/svg">
<circle cx="30" cy="30" r="30" fill="#FF565E"/>
<path d="M23.6361 36.364C23.2455 35.9734 23.2455 35.3403 23.6361 34.9497L28.5858 30L23.6361 25.0503C23.2455 24.6597 23.2455 24.0266 23.6361 23.636C24.0266 23.2455 24.6597 23.2455 25.0503 23.636L30 28.5858L34.9498 23.636C35.3403 23.2455 35.9734 23.2455 36.364 23.636C36.7545 24.0266 36.7545 24.6597 36.364 25.0503L31.4142 30L36.364 34.9497C36.7545 35.3403 36.7545 35.9734 36.364 36.364C35.9734 36.7545 35.3403 36.7545 34.9498 36.364L30 31.4142L25.0503 36.364C24.6597 36.7545 24.0266 36.7545 23.6361 36.364Z" fill="white"/>
</svg>
