<svg width="24" height="24" viewBox="0 0 24 24" fill="none" xmlns="http://www.w3.org/2000/svg">
<rect width="24" height="24" rx="4" fill="#3DD598"/>
<path fill-rule="evenodd" clip-rule="evenodd" d="M11.9479 6C9.99862 6 8.41845 7.61177 8.41845 9.6V11.1428C8.41845 11.6992 8.24153 12.2406 7.91425 12.6857L7.16687 13.7021C6.88092 14.0911 6.96449 14.6236 7.40207 14.8162C8.18951 15.1628 9.64011 15.6 11.9479 15.6C14.2556 15.6 15.7062 15.1628 16.4936 14.8162C16.9312 14.6236 17.0148 14.0911 16.7289 13.7021L15.9815 12.6857C15.6542 12.2406 15.4773 11.6992 15.4773 11.1428V9.6C15.4773 7.61177 13.8971 6 11.9479 6ZM11.9479 17.7C11.215 17.7 10.6073 17.1531 10.4956 16.4376C10.9363 16.4771 11.4196 16.5 11.9479 16.5C12.476 16.5 12.9594 16.4771 13.4001 16.4376C13.2884 17.1531 12.6807 17.7 11.9479 17.7Z" fill="white"/>
</svg>
