<svg width="37" height="36" viewBox="0 0 37 36" fill="none" xmlns="http://www.w3.org/2000/svg">
<rect x="0.548187" width="36.3705" height="35.6667" rx="12" fill="#FF565E" fill-opacity="0.4"/>
<path d="M23.2006 21.152C23.5913 20.7616 23.5915 20.1285 23.2012 19.7378C22.8108 19.3471 22.1776 19.3469 21.787 19.7372L23.2006 21.152ZM18.0883 23.433C17.6976 23.8233 17.6973 24.4565 18.0877 24.8472C18.4781 25.2379 19.1112 25.2381 19.5019 24.8477L18.0883 23.433ZM18.0883 24.8477C18.4789 25.2381 19.1121 25.2379 19.5025 24.8472C19.8928 24.4565 19.8926 23.8233 19.5019 23.433L18.0883 24.8477ZM15.8032 19.7372C15.4125 19.3469 14.7794 19.3471 14.389 19.7378C13.9986 20.1285 13.9989 20.7616 14.3896 21.152L15.8032 19.7372ZM17.7951 24.1404C17.7951 24.6926 18.2428 25.1404 18.7951 25.1404C19.3474 25.1404 19.7951 24.6926 19.7951 24.1404H17.7951ZM19.7951 11C19.7951 10.4477 19.3474 10 18.7951 10C18.2428 10 17.7951 10.4477 17.7951 11H19.7951ZM21.787 19.7372L18.0883 23.433L19.5019 24.8477L23.2006 21.152L21.787 19.7372ZM19.5019 23.433L15.8032 19.7372L14.3896 21.152L18.0883 24.8477L19.5019 23.433ZM19.7951 24.1404V11H17.7951V24.1404H19.7951Z" fill="white"/>
</svg>
