<svg width="24" height="24" viewBox="0 0 24 24" fill="none" xmlns="http://www.w3.org/2000/svg">
<rect width="24" height="24" rx="4" fill="#FFC542"/>
<path d="M11.4508 6.34564C11.6592 5.88479 12.3408 5.88479 12.5492 6.34564L13.81 9.13377C13.8968 9.32557 14.0854 9.45698 14.3024 9.47681L17.4574 9.76509C17.9789 9.81274 18.1895 10.4343 17.7968 10.7667L15.4211 12.7782C15.2577 12.9166 15.1856 13.1292 15.233 13.3332L15.9221 16.2996C16.0359 16.7899 15.4845 17.174 15.0334 16.9186L12.3043 15.3736C12.1166 15.2674 11.8834 15.2674 11.6957 15.3736L8.96656 16.9186C8.51547 17.174 7.96408 16.7899 8.07797 16.2996L8.76698 13.3332C8.81438 13.1292 8.74233 12.9166 8.5789 12.7782L6.20319 10.7667C5.81052 10.4343 6.02113 9.81274 6.54261 9.76509L9.69756 9.47681C9.9146 9.45698 10.1032 9.32557 10.19 9.13377L11.4508 6.34564Z" fill="white"/>
</svg>
